<svg width="66" height="66" viewBox="0 0 66 66" fill="none" xmlns="http://www.w3.org/2000/svg">
<path d="M0 33C0 14.7746 14.7746 0 33 0C51.2254 0 66 14.7746 66 33C66 51.2254 51.2254 66 33 66C14.7746 66 0 51.2254 0 33Z" fill="white"/>
<mask id="mask0_1_571" style="mask-type:alpha" maskUnits="userSpaceOnUse" x="0" y="0" width="66" height="66">
<path d="M0 33C0 14.7746 14.7746 0 33 0C51.2254 0 66 14.7746 66 33C66 51.2254 51.2254 66 33 66C14.7746 66 0 51.2254 0 33Z" fill="white"/>
</mask>
<g mask="url(#mask0_1_571)">
<path d="M17.1813 30.7806H30.565C30.565 30.9239 30.4939 31.282 30.3515 31.855C30.2566 32.3803 30.1379 33.025 29.9955 33.789C29.8531 34.5531 29.7108 35.3887 29.5684 36.296C29.4735 37.2033 29.426 38.039 29.426 38.803C29.426 39.2806 29.4735 39.782 29.5684 40.3072C29.6633 40.8325 29.8294 41.3339 30.0667 41.8115C30.304 42.2412 30.6362 42.6232 31.0634 42.9575C31.538 43.244 32.1075 43.3873 32.7719 43.3873C34.0059 43.3873 34.9788 42.8859 35.6907 41.8831C36.4501 40.8325 37.1145 38.9463 37.6841 36.2244L44.8743 2.12903H60.3226L53.3459 35.0067C52.7289 37.8241 51.6611 40.1162 50.1424 41.8831C48.6236 43.6022 46.8676 44.9393 44.8743 45.8943C42.9284 46.8494 40.8402 47.4701 38.6095 47.7567C36.3789 48.0909 34.2432 48.2581 32.2024 48.2581C29.8294 48.2581 27.7886 48.0909 26.0801 47.7567C24.3715 47.4701 22.8528 47.0404 21.5239 46.4673C20.2425 45.8943 19.0797 45.2019 18.0356 44.3901C16.9914 43.5305 15.9473 42.5994 14.9032 41.5966L17.1813 30.7806Z" fill="#1F1E2C"/>
</g>
</svg>
