<svg width="79" height="79" viewBox="0 0 79 79" fill="none" xmlns="http://www.w3.org/2000/svg">
<ellipse cx="39.8808" cy="38.5175" rx="29.05" ry="28.5175" stroke="#F0F0F0" stroke-width="20" stroke-linecap="round"/>
<path d="M39.8808 10C44.9869 10 50.0028 11.3212 54.423 13.8303C58.8432 16.3395 62.5117 19.9481 65.0587 24.2924C67.6057 28.6367 68.9412 33.5633 68.9308 38.5758C68.9204 43.5882 67.5643 48.5094 64.9992 52.8435C62.4341 57.1775 58.7507 60.7713 54.32 63.2628C49.8894 65.7542 44.8681 67.0552 39.7621 67.0347C34.656 67.0142 29.6457 65.6729 25.236 63.146C20.8262 60.6191 17.1729 56.9958 14.644 52.6413L39.8808 38.5175V10Z" stroke="#FF8E26" stroke-width="20" stroke-linecap="round"/>
<g filter="url(#filter0_d_8_3)">
<rect x="13.3846" y="12.507" width="52.9923" height="52.0209" rx="26.0104" fill="white"/>
</g>
<path d="M35.0452 34.6775C34.8692 33.0295 33.7492 31.4935 31.3652 31.4935C28.4052 31.4935 27.1732 33.6055 27.1732 37.4135C27.1732 41.0295 28.0372 43.4615 31.4932 43.4615C33.9892 43.4615 35.3812 41.8135 35.3812 39.5575C35.3812 37.1255 33.9252 35.7495 31.8452 35.7495C30.7092 35.7495 29.6532 36.2295 29.1252 37.1095C29.1572 34.4215 29.8292 33.3335 31.2852 33.3335C32.2932 33.3335 32.7572 33.8135 32.9652 34.6775H35.0452ZM31.3332 37.5895C32.6292 37.5895 33.2532 38.4055 33.2532 39.6055C33.2532 40.8055 32.5332 41.5575 31.3812 41.5575C30.0692 41.5575 29.3332 40.7735 29.3332 39.5255C29.3332 38.1975 30.2932 37.5895 31.3332 37.5895ZM45.2795 34.6775C45.1035 33.0295 43.9835 31.4935 41.5995 31.4935C38.6395 31.4935 37.4075 33.6055 37.4075 37.4135C37.4075 41.0295 38.2715 43.4615 41.7275 43.4615C44.2235 43.4615 45.6155 41.8135 45.6155 39.5575C45.6155 37.1255 44.1595 35.7495 42.0795 35.7495C40.9435 35.7495 39.8875 36.2295 39.3595 37.1095C39.3915 34.4215 40.0635 33.3335 41.5195 33.3335C42.5275 33.3335 42.9915 33.8135 43.1995 34.6775H45.2795ZM41.5675 37.5895C42.8635 37.5895 43.4875 38.4055 43.4875 39.6055C43.4875 40.8055 42.7675 41.5575 41.6155 41.5575C40.3035 41.5575 39.5675 40.7735 39.5675 39.5255C39.5675 38.1975 40.5275 37.5895 41.5675 37.5895ZM47.1299 34.6295C47.1299 36.3095 48.2179 37.2375 49.6739 37.2375C51.1299 37.2375 52.2179 36.3095 52.2179 34.6295C52.2179 32.9655 51.1299 32.0375 49.6739 32.0375C48.2179 32.0375 47.1299 32.9655 47.1299 34.6295ZM49.6579 33.3815C50.2179 33.3815 50.5699 33.7495 50.5699 34.6295C50.5699 35.5095 50.2179 35.8935 49.6579 35.8935C49.1139 35.8935 48.7779 35.5095 48.7779 34.6295C48.7779 33.7495 49.1139 33.3815 49.6579 33.3815ZM48.9379 43.4295H51.1139L57.4019 32.2295H55.2099L48.9379 43.4295ZM54.1539 41.0135C54.1539 42.7095 55.2419 43.6215 56.6979 43.6215C58.1379 43.6215 59.2099 42.7095 59.2099 41.0135C59.2099 39.3335 58.1379 38.4215 56.6979 38.4215C55.2419 38.4215 54.1539 39.3335 54.1539 41.0135ZM56.6819 39.7655C57.2259 39.7655 57.5779 40.1335 57.5779 41.0135C57.5779 41.9095 57.2259 42.2775 56.6819 42.2775C56.1219 42.2775 55.7699 41.9095 55.7699 41.0135C55.7699 40.1335 56.1219 39.7655 56.6819 39.7655Z" fill="#232323"/>
<defs>
<filter id="filter0_d_8_3" x="3.38458" y="6.50705" width="72.9923" height="72.0209" filterUnits="userSpaceOnUse" color-interpolation-filters="sRGB">
<feFlood flood-opacity="0" result="BackgroundImageFix"/>
<feColorMatrix in="SourceAlpha" type="matrix" values="0 0 0 0 0 0 0 0 0 0 0 0 0 0 0 0 0 0 127 0" result="hardAlpha"/>
<feOffset dy="4"/>
<feGaussianBlur stdDeviation="5"/>
<feColorMatrix type="matrix" values="0 0 0 0 0 0 0 0 0 0 0 0 0 0 0 0 0 0 0.13 0"/>
<feBlend mode="normal" in2="BackgroundImageFix" result="effect1_dropShadow_8_3"/>
<feBlend mode="normal" in="SourceGraphic" in2="effect1_dropShadow_8_3" result="shape"/>
</filter>
</defs>
</svg>
