<svg width="80" height="79" viewBox="0 0 80 79" fill="none" xmlns="http://www.w3.org/2000/svg">
<ellipse cx="40.0116" cy="38.5175" rx="29.05" ry="28.5175" stroke="#F0F0F0" stroke-width="20" stroke-linecap="round"/>
<path d="M40.0116 10C44.6679 10 49.256 11.0988 53.3892 13.2037C57.5224 15.3087 61.0796 18.3581 63.7611 22.095C66.4425 25.832 68.1696 30.1469 68.7968 34.6762C69.424 39.2055 68.9329 43.8164 67.365 48.1205L40.0116 38.5175L40.0116 10Z" stroke="#3EA834" stroke-width="20" stroke-linecap="round"/>
<g filter="url(#filter0_d_8_12)">
<rect x="13.5154" y="12.507" width="52.9923" height="52.0209" rx="26.0104" fill="white"/>
</g>
<path d="M27.08 34.8375H29.272C29.352 34.1015 29.816 33.3975 30.904 33.3975C31.928 33.3975 32.488 33.9415 32.488 34.8535C32.488 36.0055 31.528 36.3735 30.216 36.3735H29.752V38.2135H30.216C31.88 38.2135 32.712 38.6935 32.712 40.0055C32.712 40.9335 32.136 41.6375 31.016 41.6375C29.816 41.6375 29.144 40.9175 29.096 39.9095H26.92C27.016 42.3575 28.76 43.5095 31.064 43.5095C33.512 43.5095 34.856 42.1015 34.856 40.1975C34.856 38.6135 34.072 37.6535 32.888 37.2855V37.2215C33.736 36.9335 34.648 36.0375 34.648 34.5815C34.648 32.8535 33.368 31.4935 30.968 31.4935C28.728 31.4935 27.192 32.6775 27.08 34.8375ZM37.9061 43.4295H40.2101V31.7655H36.3541V33.8295H37.9061V43.4295ZM42.167 34.6295C42.167 36.3095 43.255 37.2375 44.711 37.2375C46.167 37.2375 47.255 36.3095 47.255 34.6295C47.255 32.9655 46.167 32.0375 44.711 32.0375C43.255 32.0375 42.167 32.9655 42.167 34.6295ZM44.695 33.3815C45.255 33.3815 45.607 33.7495 45.607 34.6295C45.607 35.5095 45.255 35.8935 44.695 35.8935C44.151 35.8935 43.815 35.5095 43.815 34.6295C43.815 33.7495 44.151 33.3815 44.695 33.3815ZM43.975 43.4295H46.151L52.439 32.2295H50.247L43.975 43.4295ZM49.191 41.0135C49.191 42.7095 50.279 43.6215 51.735 43.6215C53.175 43.6215 54.247 42.7095 54.247 41.0135C54.247 39.3335 53.175 38.4215 51.735 38.4215C50.279 38.4215 49.191 39.3335 49.191 41.0135ZM51.719 39.7655C52.263 39.7655 52.615 40.1335 52.615 41.0135C52.615 41.9095 52.263 42.2775 51.719 42.2775C51.159 42.2775 50.807 41.9095 50.807 41.0135C50.807 40.1335 51.159 39.7655 51.719 39.7655Z" fill="#232323"/>
<defs>
<filter id="filter0_d_8_12" x="3.51541" y="6.50705" width="72.9923" height="72.0209" filterUnits="userSpaceOnUse" color-interpolation-filters="sRGB">
<feFlood flood-opacity="0" result="BackgroundImageFix"/>
<feColorMatrix in="SourceAlpha" type="matrix" values="0 0 0 0 0 0 0 0 0 0 0 0 0 0 0 0 0 0 127 0" result="hardAlpha"/>
<feOffset dy="4"/>
<feGaussianBlur stdDeviation="5"/>
<feColorMatrix type="matrix" values="0 0 0 0 0 0 0 0 0 0 0 0 0 0 0 0 0 0 0.13 0"/>
<feBlend mode="normal" in2="BackgroundImageFix" result="effect1_dropShadow_8_12"/>
<feBlend mode="normal" in="SourceGraphic" in2="effect1_dropShadow_8_12" result="shape"/>
</filter>
</defs>
</svg>
